<svg width="16" height="16" viewBox="0 0 16 16" fill="none" xmlns="http://www.w3.org/2000/svg">
<path fill-rule="evenodd" clip-rule="evenodd" d="M0.666664 3.33332C0.666664 1.86056 1.86057 0.666656 3.33333 0.666656H12.6667C14.1394 0.666656 15.3333 1.86056 15.3333 3.33332V12.6667C15.3333 14.1394 14.1394 15.3333 12.6667 15.3333H3.33333C1.86057 15.3333 0.666664 14.1394 0.666664 12.6667V3.33332ZM3.33333 1.99999H12.6667C13.4031 1.99999 14 2.59694 14 3.33332V12.6667C14 13.4031 13.4031 14 12.6667 14H3.33333C2.59695 14 2 13.4031 2 12.6667V3.33332C2 2.59694 2.59695 1.99999 3.33333 1.99999Z" fill="#171717"/>
</svg>
