<svg width="32" height="30" viewBox="0 0 32 30" fill="none" xmlns="http://www.w3.org/2000/svg">
<path fill-rule="evenodd" clip-rule="evenodd" d="M15.7143 0C7.03571 0 0 6.71591 0 15C0 23.2841 7.03571 30 15.7143 30C24.3929 30 31.4286 23.2841 31.4286 15C31.4286 6.71591 24.3929 0 15.7143 0ZM17.1429 20.4545C17.1429 20.8162 16.9923 21.1631 16.7244 21.4188C16.4565 21.6745 16.0932 21.8182 15.7143 21.8182C15.3354 21.8182 14.972 21.6745 14.7041 21.4188C14.4362 21.1631 14.2857 20.8162 14.2857 20.4545V16.3636H10C9.62112 16.3636 9.25776 16.22 8.98985 15.9642C8.72194 15.7085 8.57143 15.3617 8.57143 15C8.57143 14.6383 8.72194 14.2915 8.98985 14.0358C9.25776 13.78 9.62112 13.6364 10 13.6364H14.2857V9.54545C14.2857 9.1838 14.4362 8.83695 14.7041 8.58122C14.972 8.32549 15.3354 8.18182 15.7143 8.18182C16.0932 8.18182 16.4565 8.32549 16.7244 8.58122C16.9923 8.83695 17.1429 9.1838 17.1429 9.54545V13.6364H21.4286C21.8075 13.6364 22.1708 13.78 22.4387 14.0358C22.7066 14.2915 22.8571 14.6383 22.8571 15C22.8571 15.3617 22.7066 15.7085 22.4387 15.9642C22.1708 16.22 21.8075 16.3636 21.4286 16.3636H17.1429V20.4545Z" fill="#47A31C"/>
</svg>
